<svg width="459" height="494" viewBox="0 0 459 494" fill="none" xmlns="http://www.w3.org/2000/svg">
<path d="M273.988 466.5H179.133C191.342 450.535 200.734 418.604 200.734 369.298V234.999C200.734 185.693 179.133 151.576 144.684 137.796H273.049C385.748 137.796 459.003 204.007 459.003 301.679C459.003 400.29 385.748 466.5 273.988 466.5ZM253.327 143.431V460.866H270.231C339.26 460.866 402.653 393.716 402.653 301.679C402.653 210.581 338.321 143.431 268.823 143.431H253.327Z" fill="white"/>
<path d="M47.8768 493.511C29.0936 493.511 14.5366 478.485 14.5366 460.641C14.5366 442.327 29.0936 427.301 47.8768 427.301C66.66 427.301 80.2779 442.327 80.2779 460.641C80.2779 478.485 66.66 493.511 47.8768 493.511Z" fill="white"/>
<path d="M254.043 97.2026V231.502C254.043 280.807 241.834 312.739 254.043 328.704H201.92C214.129 312.739 201.92 280.807 201.92 231.502V139.465H74.1937V231.502C74.1937 280.807 83.5853 312.739 95.7944 328.704H0C12.2091 312.739 21.6007 280.807 21.6007 231.502V97.2026C21.6007 47.8969 12.2091 15.9657 0 0H95.7944C83.5853 15.9657 74.1937 47.8969 74.1937 97.2026V133.83H201.92V97.2026C201.92 47.8969 192.528 15.9657 180.319 0H275.644C263.435 15.9657 254.043 47.8969 254.043 97.2026Z" fill="white"/>
</svg>
